<?xml version="1.0" encoding="utf-8"?>
<svg version="1.1" id="Layer_1" x="0px" y="0px" viewBox="0 0 428.406 431.185" style="enable-background:new 0 0 1077 430;"
     xmlns="http://www.w3.org/2000/svg">
    <style type="text/css">
        .st0{fill-rule:evenodd;clip-rule:evenodd;fill:#FFFFFF;}
        .st1{fill-rule:evenodd;clip-rule:evenodd;fill:url(#Shape_bot_00000152258589966602294130000014585586730069218494_);}
        .st2{fill-rule:evenodd;clip-rule:evenodd;fill:#1374CF;}
        .st3{fill-rule:evenodd;clip-rule:evenodd;fill:url(#Shape_bot-2_00000071525022654868157440000017646025089533714847_);}
        .st4{fill-rule:evenodd;clip-rule:evenodd;fill:url(#Shape_bot_copy_00000135664702399188730640000011188738535814385317_);}
        .st5{fill-rule:evenodd;clip-rule:evenodd;fill:url(#Shape_top-2_00000084518159882961768640000007202671351079674262_);}
        .st6{fill-rule:evenodd;clip-rule:evenodd;fill:#FE5E00;}
    </style>
    <g id="Axon_-_Light">
        <g id="Clean_copy_3">
            <path id="DOts_copy" class="st0"
                  d="M213.9,365.6c17.7,0,32.1,14.4,32.1,32.1c0,17.7-14.4,32.1-32.1,32.1s-32.1-14.4-32.1-32.1 l0,0C181.8,380,196.2,365.6,213.9,365.6z M246,33.1c0,17.7-14.4,32.1-32.1,32.1c-17.7,0-32.1-14.4-32.1-32.1 c0-17.7,14.4-32.1,32.1-32.1S246,15.3,246,33.1L246,33.1z"/>
            <g id="Right">
                <linearGradient id="Shape_bot_00000042706552385112042970000002999065333005269406_" gradientUnits="userSpaceOnUse"
                                x1="2738.48" y1="-7624.0825" x2="2614.5703" y2="-7500.1729"
                                gradientTransform="matrix(1 0 0 -1 -2354 -7421)">
                    <stop offset="0" style="stop-color:#001223"/>
                    <stop offset="0.2" style="stop-color:#1374CF"/>
                    <stop offset="1" style="stop-color:#1374CF"/>
                </linearGradient>
                <path id="Shape_bot"
                      style="fill-rule:evenodd;clip-rule:evenodd;fill:url(#Shape_bot_00000042706552385112042970000002999065333005269406_);"
                      d=" M398.3,171.2L351.7,216l-65.6-65.6C279,144,273,134.7,273,124.2c0-17.7,14.3-32.1,32.1-32.1c7.8,0,15.3,2.8,21.2,8L398.3,171.2z"/>
                <path id="Shape_top" class="st2"
                      d="M428.4,215.4c0,8.5-3.4,16.6-9.4,22.6l-92.3,92.2c-13,12-33.3,11.1-45.3-1.9 c-5.4-5.9-8.5-13.7-8.4-21.7c0-10.8,5.2-19.5,13.2-26.7l110.4-110.4l22.5,23.4v0C425,198.9,428.4,207,428.4,215.4z"/>
            </g>
            <g id="Left">
                <linearGradient id="Shape_bot-2_00000096058771709293362380000001364163709408471714_" gradientUnits="userSpaceOnUse"
                                x1="2384.4753" y1="-7635.3994" x2="2508.5054" y2="-7759.4292"
                                gradientTransform="matrix(1 0 0 -1 -2354 -7421)">
                    <stop offset="0" style="stop-color:#3D1700"/>
                    <stop offset="0.33" style="stop-color:#FE5E00"/>
                    <stop offset="1" style="stop-color:#FE5E00"/>
                </linearGradient>
                <path id="Shape_bot-2"
                      style="fill-rule:evenodd;clip-rule:evenodd;fill:url(#Shape_bot-2_00000096058771709293362380000001364163709408471714_);"
                      d=" M29.8,259.4l46.6-44.9l65.6,65.6c7.2,6.5,13.2,15.8,13.2,26.2c0.1,17.7-14.2,32.1-31.9,32.1c-7.8,0-15.4-2.8-21.3-8L29.8,259.4z"/>
                <linearGradient id="Shape_bot_copy_00000170249746183645473480000003785028154188707741_" gradientUnits="userSpaceOnUse"
                                x1="2556.9705" y1="-7647.6938" x2="2432.7505" y2="-7771.9141"
                                gradientTransform="matrix(1 0 0 -1 -2354 -7421)">
                    <stop offset="0" style="stop-color:#3D1700"/>
                    <stop offset="0.2" style="stop-color:#FE5E00"/>
                    <stop offset="1" style="stop-color:#FE5E00"/>
                </linearGradient>
                <path id="Shape_bot_copy"
                      style="fill-rule:evenodd;clip-rule:evenodd;fill:url(#Shape_bot_copy_00000170249746183645473480000003785028154188707741_);"
                      d=" M170.9,212.7l45,46.8l-65.7,65.9c-6.5,7.2-15.8,13.2-26.3,13.2c-17.8,0-32.2-14.5-32.2-32.3c0-7.8,2.9-15.3,8-21.2L170.9,212.7z"/>
                <linearGradient id="Shape_top-2_00000013194382034364374780000016207787449921038218_" gradientUnits="userSpaceOnUse"
                                x1="2468.5251" y1="-7553.5752" x2="2343.4651" y2="-7678.6353"
                                gradientTransform="matrix(1 0 0 -1 -2354 -7421)">
                    <stop offset="0" style="stop-color:#3D1700"/>
                    <stop offset="0.2" style="stop-color:#FE5E00"/>
                    <stop offset="1" style="stop-color:#FE5E00"/>
                </linearGradient>
                <path id="Shape_top-2"
                      style="fill-rule:evenodd;clip-rule:evenodd;fill:url(#Shape_top-2_00000013194382034364374780000016207787449921038218_);"
                      d=" M-0.3,215.2c0-8.5,3.4-16.7,9.4-22.7l70.3-70.3l45.5,45.5l-93.3,93.5L9,237.8v-0.1C3,231.7-0.3,223.6-0.3,215.2z"/>
                <path id="Shape_top_copy_2" class="st6"
                      d="M77.2,123.6l23.4-22.5h0.1c12.5-12.4,32.7-12.3,45.1,0.1l91.6,91.6 c12.4,12.5,12.5,32.6,0.1,45.1v0L215,261.4L77.2,123.6z"/>
            </g>
        </g>
    </g>
</svg>
