<?xml version="1.0" encoding="utf-8"?>
<svg version="1.1" id="Layer_1" x="0px" y="0px" viewBox="145.526 145.034 210.915 213.374"
     style="enable-background:new 0 0 500 500;" xmlns="http://www.w3.org/2000/svg">
  <style type="text/css">
    .st0{fill:url(#SVGID_1_);}
    .st1{opacity:0.22;}
    .st2{fill:#13110C;}
    .st3{fill:#FFFFFF;}
  </style>
  <g>
    <g>
      <linearGradient id="SVGID_1_" gradientUnits="userSpaceOnUse" x1="250.1906" y1="149.983" x2="250.1906"
                      y2="352.0739" gradientTransform="matrix(1 0 0 -1 0 501.5)">
        <stop offset="0" style="stop-color:#E94F0E"/>
        <stop offset="1" style="stop-color:#F39000"/>
      </linearGradient>
      <path class="st0"
            d="M351.2,322.9c0,15.8-12.8,28.6-28.6,28.6H177.8c-15.8,0-28.6-12.8-28.6-28.6V178.1 c0-15.8,12.8-28.6,28.6-28.6h144.8c15.8,0,28.6,12.8,28.6,28.6V322.9z"/>
      <g>
        <g class="st1">
          <path class="st2"
                d="M318.9,280.4c-3.8-5.2-8.4-9.3-13.2-12.2l0,0c0,0,0,0-0.1,0c-0.5-0.3-0.9-0.6-1.4-0.8 c-3-1.7-5.8-3.3-7.7-7.7l-2.8-10.4c-0.1-1.4-0.4-3.3-1-6c-2.3-11.1-2.2-15.9,2.1-23.6c0.2-0.3,0.3-0.5,0.5-0.8 c0.2-0.3,0.3-0.6,0.5-0.9l-0.1,0c4.5-9.3,2.5-23.2-6.2-35c-11.1-15.2-28.8-21.1-39.5-13.3c-8.3,6-10,18.5-5.3,30.8 c1.4,3.9-1.7,11-8.2,16.3l-20,14.7c-7.7,4.8-11.7,5.4-19.5,3.3c-7.4-2.7-14.9-2.4-20.5,1.7c-10.7,7.8-10.5,26.5,0.6,41.7 c11.1,15.2,28.8,21.1,39.5,13.3c0.9-0.7,1.7-1.5,2.5-2.3c3.5-3.5,5.8-5.6,12-4.1l3.1,0.9c0.8,0.3,1.4,0.4,1.8,0.5l23,6.8 c9.5,3.7,13.8,5,16.8,9.1c1.1,2.1,2.4,4.2,3.9,6.3c11.1,15.2,28.8,21.1,39.5,13.3C330.3,314.3,330,295.6,318.9,280.4z M228.9,275.8c-3.2-2.6-4-6-5.6-11.5l0,0.1c-1.3-4.7-3.5-9.4-6.7-13.9l0.1,0c-2.4-3.4-2.2-6.8,5.3-12.5c0.5-0.3,0.8-0.7,1.1-0.9 l15.4-11.3c8.9-5.7,14.7-8.9,21-5.1c4.3,3.4,9,5.7,13.6,6.8c3.2,1,5.7,2.4,8.2,7.6l6.9,25.2c-0.6,1.8-2.3,2.9-6.2,5.3 c-0.9,0.4-1.7,0.9-2.5,1.5c-4,2.9-6.4,7.3-7.4,12.4c-1.1,4.2-9,5.6-16.7,4.1L228.9,275.8z M207.1,284.5c-1.3,0-2.6-0.6-3.3-1.8 c-0.8-1.3-0.8-2.9-0.1-4.1c-0.3-1.9-2.4-7.4-7-14.7c-4.7-7.2-8.8-11.4-10.4-12.5c-1.4,0.1-2.9-0.5-3.7-1.8 c-1.2-1.8-0.7-4.3,1.2-5.4c1.1-0.7,2.5-0.9,3.9-0.7c5.7,1.2,13.4,12.6,15.6,16.1c5.8,9,11.6,20.6,6,24.2 C208.5,284.3,207.8,284.5,207.1,284.5z M309.8,315.1c-1.3,0-2.6-0.6-3.3-1.8c-0.8-1.3-0.8-2.9-0.1-4.1c-0.3-1.9-2.4-7.4-7-14.7 c-4.7-7.2-8.8-11.4-10.4-12.5c-1.4,0.1-2.9-0.5-3.7-1.8c-1.2-1.8-0.7-4.3,1.2-5.4c4.1-2.7,8.8,2,10.5,3.8c2.8,2.9,6.1,7,9,11.7 c5.8,9,11.6,20.6,6,24.2C311.3,314.9,310.5,315.1,309.8,315.1z M280.4,217.8c-1.3,0-2.6-0.6-3.3-1.8c-0.8-1.3-0.8-2.9-0.1-4.1 c-0.3-1.9-2.4-7.4-7-14.7c-4.7-7.2-8.8-11.4-10.4-12.5c-1.4,0.1-2.9-0.5-3.7-1.8c-1.2-1.8-0.6-4.3,1.2-5.4 c5.6-3.6,13.7,6.4,19.5,15.5c5.8,9,11.6,20.6,6,24.2C281.9,217.6,281.2,217.8,280.4,217.8z"/>
        </g>
        <g>
          <path class="st3"
                d="M318.9,284.3c-3.8-5.2-8.4-9.3-13.2-12.2l0,0c0,0,0,0-0.1,0c-0.5-0.3-0.9-0.6-1.4-0.8 c-3-1.7-5.8-3.3-7.7-7.7l-2.8-10.4c-0.1-1.4-0.4-3.3-1-6c-2.3-11.1-2.2-15.9,2.1-23.6c0.2-0.3,0.3-0.5,0.5-0.8 c0.2-0.3,0.3-0.6,0.5-0.9l-0.1,0c4.5-9.3,2.5-23.2-6.2-35c-11.1-15.2-28.8-21.1-39.5-13.3c-8.3,6-10,18.5-5.3,30.8 c1.4,3.9-1.7,11-8.2,16.3l-20,14.7c-7.7,4.8-11.7,5.4-19.5,3.3c-7.4-2.7-14.9-2.4-20.5,1.7c-10.7,7.8-10.5,26.5,0.6,41.7 c11.1,15.2,28.8,21.1,39.5,13.3c0.9-0.7,1.7-1.5,2.5-2.3c3.5-3.5,5.8-5.6,12-4.1l3.1,0.9c0.8,0.3,1.4,0.4,1.8,0.5l23,6.8 c9.5,3.7,13.8,5,16.8,9.1c1.1,2.1,2.4,4.2,3.9,6.3c11.1,15.2,28.8,21.1,39.5,13.3C330.3,318.2,330,299.5,318.9,284.3z M228.9,279.7c-3.2-2.6-4-6-5.6-11.5l0,0.1c-1.3-4.7-3.5-9.4-6.7-13.9l0.1,0c-2.4-3.4-2.2-6.8,5.3-12.5c0.5-0.3,0.8-0.7,1.1-0.9 l15.4-11.3c8.9-5.7,14.7-8.9,21-5.1c4.3,3.4,9,5.7,13.6,6.8c3.2,1,5.7,2.4,8.2,7.6l6.9,25.2c-0.6,1.8-2.3,2.9-6.2,5.3 c-0.9,0.4-1.7,0.9-2.5,1.5c-4,2.9-6.4,7.3-7.4,12.4c-1.1,4.2-9,5.6-16.7,4.1L228.9,279.7z M207.1,288.4c-1.3,0-2.6-0.6-3.3-1.8 c-0.8-1.3-0.8-2.9-0.1-4.1c-0.3-1.9-2.4-7.4-7-14.7c-4.7-7.2-8.8-11.4-10.4-12.5c-1.4,0.1-2.9-0.5-3.7-1.8 c-1.2-1.8-0.7-4.3,1.2-5.4c1.1-0.7,2.5-0.9,3.9-0.7c5.7,1.2,13.4,12.6,15.6,16.1c5.8,9,11.6,20.6,6,24.2 C208.5,288.2,207.8,288.4,207.1,288.4z M309.8,319.1c-1.3,0-2.6-0.6-3.3-1.8c-0.8-1.3-0.8-2.9-0.1-4.1c-0.3-1.9-2.4-7.4-7-14.7 c-4.7-7.2-8.8-11.4-10.4-12.5c-1.4,0.1-2.9-0.5-3.7-1.8c-1.2-1.8-0.7-4.3,1.2-5.4c4.1-2.7,8.8,2,10.5,3.8c2.8,2.9,6.1,7,9,11.7 c5.8,9,11.6,20.6,6,24.2C311.3,318.9,310.5,319.1,309.8,319.1z M280.4,221.7c-1.3,0-2.6-0.6-3.3-1.8c-0.8-1.3-0.8-2.9-0.1-4.1 c-0.3-1.9-2.4-7.4-7-14.7c-4.7-7.2-8.8-11.4-10.4-12.5c-1.4,0.1-2.9-0.5-3.7-1.8c-1.2-1.8-0.6-4.3,1.2-5.4 c5.6-3.6,13.7,6.4,19.5,15.5c5.8,9,11.6,20.6,6,24.2C281.9,221.5,281.2,221.7,280.4,221.7z"/>
        </g>
      </g>
    </g>
  </g>
</svg>
