<svg width="307" height="300" viewBox="0 0 307 300" fill="none" xmlns="http://www.w3.org/2000/svg">
<path d="M60.0714 129.998V170.002C60.0714 186.572 73.5176 200.002 90.1072 200.002C98.397 200.002 105.906 203.358 111.342 208.791C116.779 214.219 120.143 221.719 120.143 230.002V270C120.143 286.57 106.697 300 90.1072 300C73.5176 300 60.0714 286.57 60.0714 270V230.002C60.0714 221.719 56.7075 214.219 51.271 208.791C45.8345 203.358 38.3256 200.002 30.0357 200.002C13.4461 200.002 0 186.572 0 170.002V129.998C0 113.428 13.4461 99.9984 30.0357 99.9984C46.6253 99.9984 60.0714 86.5687 60.0714 69.9984V30C60.0714 13.4297 73.5176 0 90.1072 0C98.397 0 105.906 3.36094 111.342 8.78906C116.779 14.2219 120.143 21.7219 120.143 30V69.9984C120.143 86.5687 106.697 99.9984 90.1072 99.9984C73.5176 99.9984 60.0714 113.428 60.0714 129.998Z" fill="#FF4405"/>
<path d="M183.212 129.999C183.212 113.433 169.765 99.9985 153.176 99.9985C136.588 99.9985 123.141 113.433 123.141 129.999V170.002C123.141 186.567 136.588 200.002 153.176 200.002C169.765 200.002 183.212 186.567 183.212 170.002V129.999Z" fill="#FF4405"/>
<path d="M306.358 129.998V170.002C306.358 186.572 292.912 200.002 276.322 200.002C259.732 200.002 246.286 213.431 246.286 230.002V270C246.286 286.57 232.841 300 216.251 300C199.661 300 186.215 286.57 186.215 270V230.002C186.215 213.431 199.661 200.002 216.251 200.002C232.841 200.002 246.286 186.572 246.286 170.002V129.998C246.286 121.72 242.922 114.22 237.486 108.792C232.049 103.359 224.54 99.9984 216.251 99.9984C199.661 99.9984 186.215 86.5687 186.215 69.9984V30C186.215 13.4297 199.661 0 216.251 0C224.54 0 232.049 3.36094 237.486 8.78906C242.922 14.2219 246.286 21.7219 246.286 30V69.9984C246.286 86.5687 259.732 99.9984 276.322 99.9984C284.612 99.9984 292.121 103.359 297.557 108.792C302.994 114.22 306.358 121.72 306.358 129.998Z" fill="#FF4405"/>
</svg>
