<?xml version="1.0" encoding="UTF-8" standalone="no"?>
<!-- Generator: Adobe Illustrator 26.0.3, SVG Export Plug-In . SVG Version: 6.00 Build 0)  -->

<svg
        version="1.1"
        id="Layer_1"
        x="0px"
        y="0px"
        viewBox="0 0 430 430"
        style="enable-background:new 0 0 1666 430;"
        xml:space="preserve"
        sodipodi:docname="handler.svg"
        inkscape:version="1.1.1 (3bf5ae0d25, 2021-09-20)"
        xmlns:inkscape="http://www.inkscape.org/namespaces/inkscape"
        xmlns:sodipodi="http://sodipodi.sourceforge.net/DTD/sodipodi-0.dtd"
        xmlns="http://www.w3.org/2000/svg"
><defs
   id="defs74397" />
    <sodipodi:namedview
            id="namedview74395"
            pagecolor="#ffffff"
            bordercolor="#666666"
            borderopacity="1.0"
            inkscape:pageshadow="2"
            inkscape:pageopacity="0.0"
            inkscape:pagecheckerboard="0"
            showgrid="false"
            inkscape:zoom="2.0302326"
            inkscape:cx="118.45933"
            inkscape:cy="214.75372"
            inkscape:window-width="3440"
            inkscape:window-height="1371"
            inkscape:window-x="0"
            inkscape:window-y="32"
            inkscape:window-maximized="1"
            inkscape:current-layer="Clean"/>
    <style
            type="text/css"
            id="style74369">
	.st0{fill-rule:evenodd;clip-rule:evenodd;fill:#21252B;}
	.st1{fill-rule:evenodd;clip-rule:evenodd;fill:url(#Shape_bot_00000100352569534222870050000010098148881650178211_);}
	.st2{fill-rule:evenodd;clip-rule:evenodd;fill:#FE5E00;}
	.st3{fill-rule:evenodd;clip-rule:evenodd;fill:url(#Shape_bot-2_00000161604097883923061390000014671746944440283819_);}
</style>
    <g
            id="Axon_Framework_-_dark">
        <g
                id="Clean">
		<path
                id="DOts_copy"
                class="st0"
                d="m 81.504228,243.3618 c -17.7,0 -32.1,-14.4 -32.1,-32.1 0,-17.7 14.4,-32.1 32.1,-32.1 17.7,0 32.100002,14.4 32.100002,32.1 v 0 c 0,17.7 -14.400002,32.1 -32.100002,32.1 z"
                sodipodi:nodetypes="ssssss"
                style="fill:#fe5e00;fill-opacity:1"/>
            <g
                    id="Right"
                    transform="matrix(1.7124623,0,0,1.3947855,-316.62397,-89.455399)">

				<linearGradient
                        id="Shape_bot_00000121241902988526533580000004407579460486918056_"
                        gradientUnits="userSpaceOnUse"
                        x1="405.47119"
                        y1="-4792.4751"
                        x2="281.561"
                        y2="-4668.5649"
                        gradientTransform="matrix(1,0,0,-1,-20,-4590)">
				<stop
                        offset="0"
                        style="stop-color:#3D1700"
                        id="stop74372"/>
                    <stop
                            offset="0.2"
                            style="stop-color:#FE5E00"
                            id="stop74374"/>
                    <stop
                            offset="1"
                            style="stop-color:#FE5E00"
                            id="stop74376"/>
			</linearGradient>

                <path
                        id="Shape_bot"
                        style="clip-rule:evenodd;fill:url(#Shape_bot_00000121241902988526533580000004407579460486918056_);fill-rule:evenodd"
                        d="m 399.3,170.6 -46.6,44.9 -65.6,-65.6 c -7.2,-6.4 -13.2,-15.8 -13.2,-26.2 0,-17.7 14.3,-32.1 32,-32.1 7.8,0 15.3,2.8 21.2,8 z"/>
                <path
                        id="Shape_top"
                        class="st2"
                        d="m 429.4,214.8 c 0,8.5 -3.4,16.6 -9.4,22.7 l -92.3,92.2 c -13,12 -33.3,11.1 -45.3,-1.9 -5.4,-5.9 -8.4,-13.7 -8.4,-21.7 0,-10.8 5.2,-19.5 13.2,-26.7 L 397.6,169 l 22.5,23.4 v 0.1 c 5.9,5.8 9.3,13.9 9.3,22.3 z"/>
		</g>

	</g>
</g>
</svg>
