<?xml version="1.0" encoding="UTF-8" standalone="no"?>
<!-- Generator: Adobe Illustrator 26.0.3, SVG Export Plug-In . SVG Version: 6.00 Build 0)  -->

<svg
        version="1.1"
        id="Layer_1"
        x="0px"
        y="0px"
        viewBox="0 0 430 430"
        style="enable-background:new 0 0 1666 430;"
        xml:space="preserve"
        sodipodi:docname="handler_intercepted.svg"
        inkscape:version="1.1.1 (3bf5ae0d25, 2021-09-20)"
        xmlns:inkscape="http://www.inkscape.org/namespaces/inkscape"
        xmlns:sodipodi="http://sodipodi.sourceforge.net/DTD/sodipodi-0.dtd"
        xmlns="http://www.w3.org/2000/svg"
><defs
   id="defs74397"><linearGradient
     id="Shape_bot_00000121241902988526533580000004407579460486918056_"
     gradientUnits="userSpaceOnUse"
     x1="405.47119"
     y1="-4792.4751"
     x2="281.561"
     y2="-4668.5649"
     gradientTransform="matrix(1,0,0,-1,-20,-4590)"><stop
       offset="0"
       style="stop-color:#3D1700"
       id="stop74372" /><stop
        offset="0.2"
        style="stop-color:#FE5E00"
        id="stop74374"/><stop
        offset="1"
        style="stop-color:#FE5E00"
        id="stop74376"/></linearGradient></defs>
    <sodipodi:namedview
            id="namedview74395"
            pagecolor="#ffffff"
            bordercolor="#666666"
            borderopacity="1.0"
            inkscape:pageshadow="2"
            inkscape:pageopacity="0.0"
            inkscape:pagecheckerboard="0"
            showgrid="false"
            inkscape:zoom="2.0302326"
            inkscape:cx="21.426116"
            inkscape:cy="214.75372"
            inkscape:window-width="3440"
            inkscape:window-height="1371"
            inkscape:window-x="0"
            inkscape:window-y="32"
            inkscape:window-maximized="1"
            inkscape:current-layer="Layer_1"/>
    <style
            type="text/css"
            id="style74369">
	.st0{fill-rule:evenodd;clip-rule:evenodd;fill:#21252B;}
	.st1{fill-rule:evenodd;clip-rule:evenodd;fill:url(#Shape_bot_00000100352569534222870050000010098148881650178211_);}
	.st2{fill-rule:evenodd;clip-rule:evenodd;fill:#FE5E00;}
	.st3{fill-rule:evenodd;clip-rule:evenodd;fill:url(#Shape_bot-2_00000161604097883923061390000014671746944440283819_);}
</style>

    <g
            transform="matrix(0, -4.226881, 2.212389, 0, 223.668243, 214.307617)"
            style=""
            id="g1078"/>
    <g
            transform="matrix(10.676164,0,0,8.775241,-48.086835,86.454923)"
            id="g1082"
            style="fill:#fe5e00;fill-opacity:1">
        <path
                d="M 8.29397,14 6.52694,21.0681 C 6.34048,21.814 7.26336,22.324 7.79569,21.7693 L 19.7911,9.2693 C 20.2486,8.79255 19.9107,8 19.25,8 h -4.4595 l 1.671,-5.01283 C 16.6234,2.50152 16.2619,2 15.75,2 H 8.74997 C 8.41511,2 8.12082,2.22198 8.02883,2.54396 l -3,10.50004 C 4.89194,13.5231 5.25168,14 5.74997,14 Z M 13.0385,8.51283 C 12.8766,8.99848 13.238,9.5 13.75,9.5 h 3.7408 L 8.66619,18.6958 9.98216,13.4319 C 10.1005,12.9585 9.74248,12.5 9.25455,12.5 H 6.74427 l 2.57142,-9 h 5.39371 z"
                style="fill:#fe5e00;fill-opacity:1"
                id="path1080"/>
    </g>
    <path
            id="DOts_copy"
            class="st0"
            d="m 166.45463,275.94476 c -17.7,0 -32.1,-14.4 -32.1,-32.1 0,-17.7 14.4,-32.1 32.1,-32.1 17.7,0 32.1,14.4 32.1,32.1 v 0 c 0,17.7 -14.4,32.1 -32.1,32.1 z"
            sodipodi:nodetypes="ssssss"
            style="clip-rule:evenodd;fill:#fe5e00;fill-opacity:1;fill-rule:evenodd"/>
    <g
            id="Right"
            transform="matrix(1.7124623,0,0,1.3947855,-309.68675,-61.28087)"><linearGradient
     id="linearGradient1564"
     gradientUnits="userSpaceOnUse"
     x1="405.47119"
     y1="-4792.4751"
     x2="281.561"
     y2="-4668.5649"
     gradientTransform="matrix(1,0,0,-1,-20,-4590)"><stop
       offset="0"
       style="stop-color:#3D1700"
       id="stop1558" /><stop
            offset="0.2"
            style="stop-color:#FE5E00"
            id="stop1560"/><stop
            offset="1"
            style="stop-color:#FE5E00"
            id="stop1562"/></linearGradient>
        <path
                id="Shape_bot"
                style="clip-rule:evenodd;fill:url(#Shape_bot_00000121241902988526533580000004407579460486918056_);fill-rule:evenodd"
                d="m 399.3,170.6 -46.6,44.9 -65.6,-65.6 c -7.2,-6.4 -13.2,-15.8 -13.2,-26.2 0,-17.7 14.3,-32.1 32,-32.1 7.8,0 15.3,2.8 21.2,8 z"/>
        <path
                id="Shape_top"
                class="st2"
                d="m 429.4,214.8 c 0,8.5 -3.4,16.6 -9.4,22.7 l -92.3,92.2 c -13,12 -33.3,11.1 -45.3,-1.9 -5.4,-5.9 -8.4,-13.7 -8.4,-21.7 0,-10.8 5.2,-19.5 13.2,-26.7 L 397.6,169 l 22.5,23.4 v 0.1 c 5.9,5.8 9.3,13.9 9.3,22.3 z"/></g></svg>
