<!--
  -  Copyright (c) 2022-2026. Axon Framework
  -
  -  Licensed under the Apache License, Version 2.0 (the "License");
  -  you may not use this file except in compliance with the License.
  -  You may obtain a copy of the License at
  -
  -     http://www.apache.org/licenses/LICENSE-2.0
  -
  -  Unless required by applicable law or agreed to in writing, software
  -  distributed under the License is distributed on an "AS IS" BASIS,
  -  WITHOUT WARRANTIES OR CONDITIONS OF ANY KIND, either express or implied.
  -  See the License for the specific language governing permissions and
  -  limitations under the License.
  -->

<svg viewBox="0 0 24 24" fill="none" xmlns="http://www.w3.org/2000/svg">
<path fill-rule="evenodd" clip-rule="evenodd" d="M12 1C5.92487 1 1 5.92487 1 12C1 18.0751 5.92487 23 12 23C18.0751 23 23 18.0751 23 12C23 5.92487 18.0751 1 12 1ZM15.2071 8.29289C14.8166 7.90237 14.1834 7.90237 13.7929 8.29289C13.4024 8.68342 13.4024 9.31658 13.7929 9.70711L16.0858 12L13.7929 14.2929C13.4024 14.6834 13.4024 15.3166 13.7929 15.7071C14.1834 16.0976 14.8166 16.0976 15.2071 15.7071L18.2071 12.7071C18.5976 12.3166 18.5976 11.6834 18.2071 11.2929L15.2071 8.29289Z" fill="#F79009"/>
</svg>
