<svg width="24" height="24" viewBox="0 0 24 24" fill="none" xmlns="http://www.w3.org/2000/svg">
<path d="M12 1C18.0751 1 23 5.92487 23 12C23 18.0751 18.0751 23 12 23C5.92487 23 1 18.0751 1 12C1 5.92487 5.92487 1 12 1ZM9.58301 7.45117C9.4134 7.37755 9.21511 7.42443 9.09668 7.56641L5.37598 12.0312C5.31176 12.1083 5.24662 12.1863 5.19922 12.2549C5.15441 12.3198 5.07295 12.4476 5.07031 12.6152C5.06742 12.8073 5.15237 12.9906 5.30176 13.1113C5.43202 13.2166 5.58243 13.235 5.66113 13.2422C5.7441 13.2497 5.84603 13.25 5.94629 13.25H8.52832L8.16992 16.1152C8.14711 16.2986 8.24762 16.4751 8.41699 16.5488C8.5866 16.6225 8.78489 16.5756 8.90332 16.4336L12.624 11.9688C12.6882 11.8917 12.7534 11.8137 12.8008 11.7451C12.8456 11.6802 12.927 11.5524 12.9297 11.3848C12.9326 11.1927 12.8476 11.0094 12.6982 10.8887C12.568 10.7834 12.4176 10.765 12.3389 10.7578C12.2559 10.7503 12.154 10.75 12.0537 10.75H9.47168L9.83008 7.88477C9.85289 7.70145 9.75238 7.52489 9.58301 7.45117ZM15.207 8.29297C14.8165 7.90244 14.1835 7.90244 13.793 8.29297C13.4024 8.68349 13.4024 9.31651 13.793 9.70703L16.0859 12L13.793 14.293C13.4024 14.6835 13.4024 15.3165 13.793 15.707C14.1835 16.0976 14.8165 16.0976 15.207 15.707L18.207 12.707C18.5976 12.3165 18.5976 11.6835 18.207 11.293L15.207 8.29297Z" fill="#FF4405"/>
</svg>
