<?xml version="1.0" encoding="UTF-8" standalone="no"?>
<!-- Generator: Adobe Illustrator 26.0.3, SVG Export Plug-In . SVG Version: 6.00 Build 0)  -->

<svg
        version="1.1"
        id="Layer_1"
        x="0px"
        y="0px"
        viewBox="0 0 430 430"
        style="enable-background:new 0 0 1666 430;"
        xml:space="preserve"
        sodipodi:docname="command_interceptor.svg"
        inkscape:version="1.1.1 (3bf5ae0d25, 2021-09-20)"
        xmlns:inkscape="http://www.inkscape.org/namespaces/inkscape"
        xmlns:sodipodi="http://sodipodi.sourceforge.net/DTD/sodipodi-0.dtd"
        xmlns="http://www.w3.org/2000/svg"
><defs
   id="defs74397" />
    <sodipodi:namedview
            id="namedview74395"
            pagecolor="#ffffff"
            bordercolor="#666666"
            borderopacity="1.0"
            inkscape:pageshadow="2"
            inkscape:pageopacity="0.0"
            inkscape:pagecheckerboard="0"
            showgrid="false"
            inkscape:zoom="2.0302326"
            inkscape:cx="118.45933"
            inkscape:cy="214.75372"
            inkscape:window-width="3440"
            inkscape:window-height="1371"
            inkscape:window-x="0"
            inkscape:window-y="32"
            inkscape:window-maximized="1"
            inkscape:current-layer="Layer_1"/>
    <style
            type="text/css"
            id="style74369">
	.st0{fill-rule:evenodd;clip-rule:evenodd;fill:#21252B;}
	.st1{fill-rule:evenodd;clip-rule:evenodd;fill:url(#Shape_bot_00000100352569534222870050000010098148881650178211_);}
	.st2{fill-rule:evenodd;clip-rule:evenodd;fill:#FE5E00;}
	.st3{fill-rule:evenodd;clip-rule:evenodd;fill:url(#Shape_bot-2_00000161604097883923061390000014671746944440283819_);}
</style>

    <g
            transform="matrix(0, -4.226881, 2.212389, 0, 223.668243, 214.307617)"
            style=""
            id="g1078"/>
    <g
            transform="matrix(18.402487,0,0,16.541909,-13.982606,12.586054)"
            id="g1082"
            style="fill:#FE5E00;fill-opacity:1">
        <path
                d="M 8.29397,14 6.52694,21.0681 C 6.34048,21.814 7.26336,22.324 7.79569,21.7693 L 19.7911,9.2693 C 20.2486,8.79255 19.9107,8 19.25,8 h -4.4595 l 1.671,-5.01283 C 16.6234,2.50152 16.2619,2 15.75,2 H 8.74997 C 8.41511,2 8.12082,2.22198 8.02883,2.54396 l -3,10.50004 C 4.89194,13.5231 5.25168,14 5.74997,14 Z M 13.0385,8.51283 C 12.8766,8.99848 13.238,9.5 13.75,9.5 h 3.7408 L 8.66619,18.6958 9.98216,13.4319 C 10.1005,12.9585 9.74248,12.5 9.25455,12.5 H 6.74427 l 2.57142,-9 h 5.39371 z"
                style="fill:#FE5E00;fill-opacity:1"
                id="path1080"/>
    </g>
    <path
            id="DOts_copy"
            class="st0"
            d="m 313.50462,296.99675 c 17.7,0 32.1,14.4 32.1,32.1 0,17.7 -14.4,32.1 -32.1,32.1 -17.7,0 -32.1,-14.4 -32.1,-32.1 v 0 c 0,-17.7 14.4,-32.1 32.1,-32.1 z"
            sodipodi:nodetypes="ssssss"
            style="clip-rule:evenodd;fill:#FE5E00;fill-opacity:1;fill-rule:evenodd"/></svg>
