<?xml version="1.0" encoding="utf-8"?>
<svg version="1.1" id="Layer_1" x="0px" y="0px" viewBox="149.951 149.459 201.574 202.066"
     style="enable-background:new 0 0 500 500;" xmlns="http://www.w3.org/2000/svg">
    <style type="text/css">
        .st0{fill:url(#SVGID_1_);}
        .st1{opacity:0.22;}
        .st2{fill:#13110C;}
        .st3{fill:#FFFFFF;}
    </style>
    <g>
        <g/>
    </g>
    <g transform="matrix(0, -4.226881, 2.212389, 0, 223.668243, 214.307617)" style=""/>
    <g transform="matrix(10.676164, 0, 0, 8.775241, 117.071251, 143.708145)" style="">
        <path d="M8.29397 14L6.52694 21.0681C6.34048 21.814 7.26336 22.324 7.79569 21.7693L19.7911 9.2693C20.2486 8.79255 19.9107 8 19.25 8H14.7905L16.4615 2.98717C16.6234 2.50152 16.2619 2 15.75 2H8.74997C8.41511 2 8.12082 2.22198 8.02883 2.54396L5.02883 13.044C4.89194 13.5231 5.25168 14 5.74997 14H8.29397ZM13.0385 8.51283C12.8766 8.99848 13.238 9.5 13.75 9.5H17.4908L8.66619 18.6958L9.98216 13.4319C10.1005 12.9585 9.74248 12.5 9.25455 12.5H6.74427L9.31569 3.5H14.7094L13.0385 8.51283Z"
              style="fill: rgb(243, 144, 0);"/>
    </g>
</svg>
