<svg width="24" height="24" viewBox="0 0 24 24" fill="none" xmlns="http://www.w3.org/2000/svg">
<path d="M12 1C18.0751 1 23 5.92487 23 12C23 18.0751 18.0751 23 12 23C5.92487 23 1 18.0751 1 12C1 5.92487 5.92487 1 12 1ZM12.583 7.45117C12.4134 7.37755 12.2151 7.42443 12.0967 7.56641L8.37598 12.0312C8.31176 12.1083 8.24662 12.1863 8.19922 12.2549C8.15441 12.3198 8.07295 12.4476 8.07031 12.6152C8.06742 12.8073 8.15237 12.9906 8.30176 13.1113C8.43202 13.2166 8.58243 13.235 8.66113 13.2422C8.7441 13.2497 8.84603 13.25 8.94629 13.25H11.5283L11.1699 16.1152C11.1471 16.2986 11.2476 16.4751 11.417 16.5488C11.5866 16.6225 11.7849 16.5756 11.9033 16.4336L15.624 11.9688C15.6882 11.8917 15.7534 11.8137 15.8008 11.7451C15.8456 11.6802 15.927 11.5524 15.9297 11.3848C15.9326 11.1927 15.8476 11.0094 15.6982 10.8887C15.568 10.7834 15.4176 10.765 15.3389 10.7578C15.2559 10.7503 15.154 10.75 15.0537 10.75H12.4717L12.8301 7.88477C12.8529 7.70145 12.7524 7.52489 12.583 7.45117Z" fill="#FF4405"/>
</svg>
